<?xml version="1.0" encoding="utf-8"?>
<!-- Generator: Adobe Illustrator 16.0.0, SVG Export Plug-In . SVG Version: 6.00 Build 0)  -->
<!DOCTYPE svg PUBLIC "-//W3C//DTD SVG 1.1//EN" "http://www.w3.org/Graphics/SVG/1.1/DTD/svg11.dtd">
<svg version="1.1" id="Layer_1" xmlns="http://www.w3.org/2000/svg" xmlns:xlink="http://www.w3.org/1999/xlink" x="0px" y="0px"
	 width="283px" height="85px" viewBox="0 0 283 85" enable-background="new 0 0 283 85" xml:space="preserve">
<g>
	<path fill="#36375E" d="M107.147,31.211c0,2.997-1.171,5.807-3.325,7.961c-2.107,2.107-4.917,3.231-7.914,3.231
		c-2.669,0-5.198-1.264-7.211-2.95v14.751h-4.027V20.487h4.027v2.482c2.014-1.686,4.542-2.95,7.211-2.95
		c2.997,0,5.807,1.124,7.914,3.231C105.977,25.404,107.147,28.214,107.147,31.211z M103.12,31.211c0-3.98-3.231-7.258-7.212-7.258
		s-7.211,3.278-7.211,7.258c0,3.981,3.231,7.259,7.211,7.259S103.12,35.192,103.12,31.211z"/>
	<path fill="#36375E" d="M132.667,31.211c0,2.997-1.171,5.807-3.325,7.961c-2.107,2.107-4.917,3.278-7.915,3.278
		s-5.807-1.171-7.961-3.278c-2.107-2.154-3.278-4.964-3.278-7.961s1.171-5.807,3.278-7.961c2.154-2.107,4.964-3.231,7.961-3.231
		s5.807,1.124,7.915,3.231C131.496,25.404,132.667,28.214,132.667,31.211z M128.64,31.211c0-3.98-3.231-7.165-7.212-7.165
		s-7.211,3.184-7.211,7.165c0,3.981,3.231,7.212,7.211,7.212S128.64,35.192,128.64,31.211z"/>
	<path fill="#36375E" d="M158.936,31.211c0,2.997-1.171,5.807-3.325,7.961c-2.107,2.107-4.917,3.231-7.914,3.231
		c-2.669,0-5.198-1.264-7.211-2.95v14.751h-4.027V20.487h4.027v2.482c2.014-1.686,4.542-2.95,7.211-2.95
		c2.997,0,5.807,1.124,7.914,3.231C157.765,25.404,158.936,28.214,158.936,31.211z M154.908,31.211c0-3.98-3.231-7.258-7.212-7.258
		s-7.211,3.278-7.211,7.258c0,3.981,3.231,7.259,7.211,7.259S154.908,35.192,154.908,31.211z"/>
	<path fill="#36375E" d="M163.241,32.756V20.487h4.027v12.269c0,3.138,2.623,5.713,5.901,5.713c3.231,0,5.9-2.576,5.9-5.713V20.487
		h4.027v12.269c0,2.623-1.077,5.058-2.95,6.884c-1.874,1.826-4.355,2.763-6.978,2.763c-2.669,0-5.151-0.937-7.024-2.763
		C164.271,37.814,163.241,35.379,163.241,32.756z"/>
	<path fill="#36375E" d="M188.48,41.935V7.562h4.027v34.373H188.48z"/>
	<path fill="#36375E" d="M217.466,32.195h-16.531v0.093c0.468,3.559,3.138,6.229,6.229,6.275c1.92-0.094,3.887-0.89,5.245-2.248
		l3.372,2.014c-0.843,0.937-1.78,1.733-2.857,2.388c-1.639,0.983-3.652,1.499-5.666,1.592c-2.81,0-5.386-1.17-7.259-3.278
		c-1.686-1.827-2.716-4.168-2.903-6.744c-0.047-0.328-0.047-0.655-0.047-0.983c0-0.843,0.094-1.686,0.281-2.529
		c0.422-1.967,1.358-3.746,2.669-5.198c1.873-2.061,4.496-3.231,7.259-3.231c2.81,0,5.385,1.171,7.305,3.231
		c1.311,1.452,2.294,3.231,2.669,5.198C217.56,30.696,217.513,31.773,217.466,32.195z M213.252,28.823l-0.047-0.094
		c-0.937-2.763-3.325-4.636-5.947-4.636c-2.576,0-4.964,1.873-5.948,4.636l-0.046,0.094H213.252z"/>
	<path fill="#36375E" d="M222.475,34.817v-10.49h-3.185v-3.84h3.185v-8.289h4.027v8.289h6.603v3.84h-6.603v10.396
		c0,1.733,1.499,3.372,3.185,3.372h3.605l1.03,3.84h-4.729C225.66,41.935,222.475,38.797,222.475,34.817z"/>
	<path fill="#36375E" d="M238.162,14.353c0-1.452,1.171-2.623,2.669-2.623c1.452,0,2.622,1.171,2.622,2.623s-1.17,2.669-2.622,2.669
		C239.333,17.022,238.162,15.804,238.162,14.353z M238.817,20.487h4.027v21.448h-4.027V20.487z"/>
	<path fill="#36375E" d="M267.804,37.814c-0.375,0.468-0.749,0.937-1.17,1.358c-2.107,2.107-4.918,3.231-7.915,3.231
		c-2.997,0-5.854-1.124-7.961-3.231c-2.107-2.154-3.278-4.964-3.278-7.961s1.171-5.807,3.278-7.961
		c2.107-2.107,4.964-3.231,7.961-3.231c2.997,0,5.807,1.124,7.915,3.231c0.421,0.422,0.795,0.843,1.123,1.312l-3.23,2.388
		c-1.312-1.779-3.419-2.997-5.807-2.997c-3.981,0-7.212,3.278-7.212,7.258c0,3.981,3.231,7.259,7.212,7.259
		c2.388,0,4.495-1.218,5.807-3.044L267.804,37.814z"/>
</g>
<g>
	<polygon fill="#F26822" points="30.939,54.496 19.209,43.339 23.68,38.639 30.88,45.489 70.427,6.877 74.958,11.517 	"/>
</g>
<g>
	<polygon fill="#F26822" points="63.5,44.281 57.013,44.281 57.013,23.212 37.424,23.212 37.424,16.726 63.5,16.726 	"/>
</g>
<g>
	<g>
		<path fill="#36375E" d="M34.91,68.035c-12.429,0-22.54-10.11-22.54-22.54c0-11.136,8.127-20.387,18.758-22.194v-6.575
			C16.904,18.586,5.883,30.773,5.883,45.495c0,16.004,13.021,29.026,29.026,29.026c14.311,0,26.228-10.416,28.59-24.063h-6.622
			C54.609,60.503,45.63,68.035,34.91,68.035z"/>
	</g>
</g>
<g>
	<path fill="#7F7FB2" d="M86.166,65.294v6.578h2.253v1.087h-3.41v-7.665H86.166z"/>
	<path fill="#7F7FB2" d="M94.348,63.234l-1.906,1.37l-0.551-0.462l1.514-1.598L94.348,63.234z M93.062,65.294v7.665h-1.157v-7.665
		H93.062z"/>
	<path fill="#7F7FB2" d="M97.293,72.958v-7.665h1.608c0.771,0,1.38,0.076,1.827,0.229c0.48,0.149,0.915,0.402,1.306,0.759
		c0.791,0.722,1.187,1.669,1.187,2.844c0,1.178-0.412,2.131-1.236,2.859c-0.414,0.364-0.847,0.618-1.3,0.76
		c-0.424,0.142-1.024,0.213-1.802,0.213H97.293z M98.45,71.872h0.521c0.52,0,0.952-0.055,1.296-0.164
		c0.344-0.116,0.655-0.299,0.933-0.551c0.569-0.52,0.854-1.197,0.854-2.031c0-0.84-0.282-1.522-0.844-2.045
		c-0.506-0.467-1.252-0.7-2.239-0.7H98.45V71.872z"/>
	<path fill="#7F7FB2" d="M111.293,66.381h-3.073v1.842h2.983v1.087h-2.983v2.562h3.073v1.087h-4.229v-7.665h4.229V66.381z"/>
	<path fill="#7F7FB2" d="M117.797,69.692l2.373,3.267h-1.415l-2.189-3.137h-0.208v3.137h-1.157v-7.665h1.355
		c1.013,0,1.744,0.19,2.194,0.571c0.497,0.424,0.745,0.983,0.745,1.678c0,0.543-0.156,1.01-0.467,1.4
		C118.717,69.333,118.307,69.583,117.797,69.692z M116.358,68.813h0.367c1.095,0,1.643-0.418,1.643-1.256
		c0-0.784-0.533-1.177-1.599-1.177h-0.412V68.813z"/>
	<path fill="#7F7FB2" d="M133.467,66.381h-3.073v1.842h2.983v1.087h-2.983v2.562h3.073v1.087h-4.229v-7.665h4.229V66.381z"/>
	<path fill="#7F7FB2" d="M137.375,72.958v-8.186l5.589,5.848v-5.327h1.157v8.131l-5.589-5.833v5.366H137.375z"/>
	<path fill="#7F7FB2" d="M156.47,69.692l2.373,3.267h-1.415l-2.189-3.137h-0.208v3.137h-1.157v-7.665h1.355
		c1.013,0,1.744,0.19,2.194,0.571c0.497,0.424,0.745,0.983,0.745,1.678c0,0.543-0.156,1.01-0.467,1.4
		C157.39,69.333,156.979,69.583,156.47,69.692z M155.03,68.813h0.367c1.095,0,1.643-0.418,1.643-1.256
		c0-0.784-0.533-1.177-1.599-1.177h-0.412V68.813z"/>
	<path fill="#7F7FB2" d="M166.613,66.381h-3.073v1.842h2.983v1.087h-2.983v2.562h3.073v1.087h-4.229v-7.665h4.229V66.381z"/>
	<path fill="#7F7FB2" d="M176.185,65.706v1.37c-0.668-0.56-1.36-0.839-2.075-0.839c-0.788,0-1.451,0.283-1.991,0.849
		c-0.542,0.562-0.814,1.251-0.814,2.065c0,0.804,0.271,1.483,0.814,2.036c0.543,0.553,1.208,0.829,1.996,0.829
		c0.407,0,0.753-0.066,1.038-0.198c0.159-0.066,0.324-0.156,0.494-0.268c0.17-0.113,0.35-0.249,0.539-0.407v1.395
		c-0.662,0.374-1.357,0.561-2.085,0.561c-1.096,0-2.03-0.382-2.805-1.147c-0.771-0.771-1.157-1.701-1.157-2.79
		c0-0.977,0.323-1.847,0.968-2.611c0.794-0.937,1.822-1.405,3.083-1.405C174.878,65.145,175.543,65.332,176.185,65.706z"/>
	<path fill="#7F7FB2" d="M181.19,65.294v6.578h2.253v1.087h-3.41v-7.665H181.19z"/>
	<path fill="#7F7FB2" d="M191.859,71.097h-3.281l-0.854,1.861h-1.246l3.793-8.146l3.658,8.146h-1.266L191.859,71.097z
		 M191.388,70.01l-1.137-2.606l-1.191,2.606H191.388z"/>
	<path fill="#7F7FB2" d="M197.009,72.958l1.613-8.24l2.631,5.957l2.726-5.957l1.449,8.24h-1.187l-0.739-4.626l-2.269,4.979
		l-2.204-4.984l-0.824,4.631H197.009z"/>
	<path fill="#7F7FB2" d="M213.943,71.097h-3.281l-0.854,1.861h-1.246l3.793-8.146l3.658,8.146h-1.266L213.943,71.097z
		 M213.471,70.01l-1.137-2.606l-1.191,2.606H213.471z"/>
	<path fill="#7F7FB2" d="M224.667,65.706v1.37c-0.668-0.56-1.36-0.839-2.075-0.839c-0.788,0-1.451,0.283-1.991,0.849
		c-0.542,0.562-0.814,1.251-0.814,2.065c0,0.804,0.271,1.483,0.814,2.036c0.543,0.553,1.208,0.829,1.996,0.829
		c0.407,0,0.753-0.066,1.038-0.198c0.159-0.066,0.324-0.156,0.494-0.268c0.17-0.113,0.35-0.249,0.539-0.407v1.395
		c-0.662,0.374-1.357,0.561-2.085,0.561c-1.096,0-2.03-0.382-2.805-1.147c-0.771-0.771-1.157-1.701-1.157-2.79
		c0-0.977,0.323-1.847,0.968-2.611c0.794-0.937,1.822-1.405,3.083-1.405C223.359,65.145,224.024,65.332,224.667,65.706z"/>
	<path fill="#7F7FB2" d="M229.672,65.294v7.665h-1.157v-7.665H229.672z"/>
	<path fill="#7F7FB2" d="M233.521,69.091c0-1.079,0.396-2.005,1.187-2.78c0.788-0.774,1.734-1.162,2.839-1.162
		c1.092,0,2.029,0.391,2.81,1.171c0.785,0.781,1.177,1.719,1.177,2.815c0,1.102-0.394,2.037-1.182,2.805
		c-0.791,0.771-1.746,1.157-2.864,1.157c-0.99,0-1.878-0.343-2.666-1.028C233.954,71.312,233.521,70.319,233.521,69.091z
		 M234.687,69.106c0,0.847,0.285,1.544,0.854,2.09c0.566,0.546,1.219,0.819,1.961,0.819c0.804,0,1.482-0.278,2.035-0.834
		c0.553-0.562,0.829-1.248,0.829-2.055c0-0.817-0.273-1.502-0.819-2.055c-0.542-0.556-1.214-0.833-2.015-0.833
		c-0.798,0-1.471,0.278-2.021,0.833C234.962,67.621,234.687,68.299,234.687,69.106z"/>
	<path fill="#7F7FB2" d="M245.376,72.958v-8.186l5.589,5.848v-5.327h1.157v8.131l-5.589-5.833v5.366H245.376z"/>
	<path fill="#7F7FB2" d="M260.578,66.381h-3.073v1.842h2.983v1.087h-2.983v2.562h3.073v1.087h-4.229v-7.665h4.229V66.381z"/>
	<path fill="#7F7FB2" d="M268.819,66.436l-0.938,0.556c-0.176-0.305-0.344-0.503-0.502-0.596c-0.166-0.106-0.379-0.159-0.641-0.159
		c-0.32,0-0.588,0.091-0.799,0.273c-0.212,0.179-0.318,0.404-0.318,0.675c0,0.374,0.278,0.675,0.834,0.904l0.766,0.312
		c0.621,0.251,1.076,0.559,1.364,0.921s0.433,0.807,0.433,1.333c0,0.705-0.235,1.287-0.705,1.747
		c-0.474,0.463-1.061,0.695-1.763,0.695c-0.665,0-1.214-0.197-1.647-0.591c-0.428-0.394-0.693-0.948-0.8-1.663l1.171-0.258
		c0.054,0.45,0.146,0.761,0.279,0.934c0.238,0.331,0.585,0.496,1.042,0.496c0.36,0,0.66-0.121,0.898-0.362
		c0.238-0.241,0.357-0.547,0.357-0.918c0-0.149-0.021-0.285-0.062-0.409c-0.042-0.125-0.106-0.238-0.194-0.343
		c-0.088-0.104-0.201-0.202-0.34-0.293c-0.14-0.091-0.305-0.178-0.497-0.26l-0.739-0.308c-1.049-0.443-1.573-1.092-1.573-1.946
		c0-0.576,0.22-1.057,0.66-1.444c0.439-0.391,0.988-0.586,1.643-0.586C267.633,65.145,268.323,65.575,268.819,66.436z"/>
</g>
</svg>
